<svg xmlns="http://www.w3.org/2000/svg" version="1.1" xmlns:xlink="http://www.w3.org/1999/xlink" xmlns:svgjs="http://svgjs.dev/svgjs" width="1000" height="1000" viewBox="0 0 1000 1000"><rect width="1000" height="1000" fill="#ffffff"></rect><g transform="matrix(0.7,0,0,0.7,149.57575757575756,417.1995097525708)"><svg viewBox="0 0 396 94" data-background-color="#ffffff" preserveAspectRatio="xMidYMid meet" height="237" width="1000" xmlns="http://www.w3.org/2000/svg" xmlns:xlink="http://www.w3.org/1999/xlink"><g id="tight-bounds" transform="matrix(1,0,0,1,0.2400000000000091,-0.08471318108291825)"><svg viewBox="0 0 395.52 94.16942636216584" height="94.16942636216584" width="395.52"><g><svg viewBox="0 0 548.271874515356 130.53814703079604" height="94.16942636216584" width="395.52"><g transform="matrix(1,0,0,1,152.75187451535598,18.041089785008722)"><svg viewBox="0 0 395.52 94.4559674607786" height="94.4559674607786" width="395.52"><g><svg viewBox="0 0 395.52 94.4559674607786" height="94.4559674607786" width="395.52"><g><svg viewBox="0 0 395.52 94.4559674607786" height="94.4559674607786" width="395.52"><g transform="matrix(1,0,0,1,0,0)"><svg width="395.52" viewBox="2.8 -40.75 172.08999999999997 41.1" height="94.4559674607786" data-palette-color="#171725"><g class="undefined-text-0" data-fill-palette-color="primary" id="text-0"><path d="M25.35-27.4L12.6-27.4 12.6-21.65 23.85-21.65 23.85-14.2 12.6-14.2 12.6-7.85 25.35-7.85 25.35 0 2.8 0 2.8-35.25 25.35-35.25 25.35-27.4ZM29-17.7Q29-22.9 31.17-26.98 33.35-31.05 37.35-33.33 41.35-35.6 46.55-35.6L46.55-35.6Q53.15-35.6 57.65-32.08 62.15-28.55 63.45-22.5L63.45-22.5 52.9-22.5Q51.95-24.5 50.27-25.55 48.6-26.6 46.4-26.6L46.4-26.6Q43-26.6 40.97-24.18 38.95-21.75 38.95-17.7L38.95-17.7Q38.95-13.6 40.97-11.18 43-8.75 46.4-8.75L46.4-8.75Q48.6-8.75 50.27-9.8 51.95-10.85 52.9-12.85L52.9-12.85 63.45-12.85Q62.15-6.8 57.65-3.28 53.15 0.25 46.55 0.25L46.55 0.25Q41.35 0.25 37.35-2.02 33.35-4.3 31.17-8.38 29-12.45 29-17.7L29-17.7ZM68.09-37L77.9-37 77.9 0 68.09 0 68.09-37ZM88.44-30.65Q85.84-30.65 84.27-32.08 82.69-33.5 82.69-35.65L82.69-35.65Q82.69-37.85 84.27-39.3 85.84-40.75 88.44-40.75L88.44-40.75Q90.99-40.75 92.57-39.3 94.14-37.85 94.14-35.65L94.14-35.65Q94.14-33.5 92.57-32.08 90.99-30.65 88.44-30.65L88.44-30.65ZM83.49-28.05L93.29-28.05 93.29 0 83.49 0 83.49-28.05ZM117.24-28.3Q122.09-28.3 124.94-25.08 127.79-21.85 127.79-16.35L127.79-16.35 127.79 0 117.99 0 117.99-15.05Q117.99-17.45 116.74-18.82 115.49-20.2 113.39-20.2L113.39-20.2Q111.19-20.2 109.94-18.82 108.69-17.45 108.69-15.05L108.69-15.05 108.69 0 98.89 0 98.89-28.05 108.69-28.05 108.69-24.05Q109.99-25.95 112.19-27.13 114.39-28.3 117.24-28.3L117.24-28.3ZM138.14-30.65Q135.54-30.65 133.96-32.08 132.39-33.5 132.39-35.65L132.39-35.65Q132.39-37.85 133.96-39.3 135.54-40.75 138.14-40.75L138.14-40.75Q140.69-40.75 142.26-39.3 143.84-37.85 143.84-35.65L143.84-35.65Q143.84-33.5 142.26-32.08 140.69-30.65 138.14-30.65L138.14-30.65ZM133.19-28.05L142.99-28.05 142.99 0 133.19 0 133.19-28.05ZM146.99-14.05Q146.99-18.4 148.79-21.65 150.59-24.9 153.81-26.65 157.04-28.4 161.19-28.4L161.19-28.4Q166.54-28.4 170.19-25.48 173.84-22.55 174.89-17.3L174.89-17.3 164.49-17.3Q163.59-20.05 160.99-20.05L160.99-20.05Q159.14-20.05 158.06-18.53 156.99-17 156.99-14.05L156.99-14.05Q156.99-11.1 158.06-9.55 159.14-8 160.99-8L160.99-8Q163.64-8 164.49-10.75L164.49-10.75 174.89-10.75Q173.84-5.55 170.19-2.6 166.54 0.35 161.19 0.35L161.19 0.35Q157.04 0.35 153.81-1.4 150.59-3.15 148.79-6.4 146.99-9.65 146.99-14.05L146.99-14.05Z" fill="#171725" data-fill-palette-color="primary"></path></g></svg></g></svg></g></svg></g></svg></g><g><svg viewBox="0 0 130.4530875410852 130.53814703079604" height="130.53814703079604" width="130.4530875410852"><g><svg xmlns="http://www.w3.org/2000/svg" xmlns:xlink="http://www.w3.org/1999/xlink" version="1.1" x="0" y="0" viewBox="0.050000000000000155 -0.024999999999999856 133.98763587432197 134.07500000000005" enable-background="new 0 0 134 134" xml:space="preserve" width="130.4530875410852" height="130.53814703079604" class="icon-icon-0" data-fill-palette-color="accent" id="icon-0"><path d="M131.4 5.9c-0.2-1.7-1.6-3.1-3.3-3.3C87.2-0.9 46.8-0.9 5.9 2.6 4.2 2.7 2.7 4.2 2.6 5.9c-3.4 40.9-3.4 81.3 0 122.3 0.2 1.7 1.6 3.1 3.3 3.3 40.9 3.4 81.3 3.4 122.3 0 1.7-0.2 3.1-1.6 3.3-3.3C134.9 87.2 134.9 46.8 131.4 5.9zM101.3 77h-24v24h-20V77h-24V57h24V33h20v24h24V77z" fill="#024ed5" data-fill-palette-color="accent"></path></svg></g></svg></g></svg></g><defs></defs></svg><rect width="395.52" height="94.16942636216584" fill="none" stroke="none" visibility="hidden"></rect></g></svg></g></svg>